<svg xmlns="http://www.w3.org/2000/svg" xml:space="preserve" width="228.12" height="298.09" viewBox="0 0 60.36 78.87"><defs><linearGradient id="c"><stop offset="0"/><stop offset="1" stop-color="#999"/></linearGradient><linearGradient id="b"><stop offset="0" stop-color="#fff"/><stop offset="1" stop-color="#fff" stop-opacity="0"/></linearGradient><linearGradient id="a"><stop offset="0" stop-color="#fff"/><stop offset="1" stop-color="#fff" stop-opacity="0"/></linearGradient><linearGradient id="e" x1="115.14" x2="171.52" y1="135.49" y2="48.2" gradientUnits="userSpaceOnUse" href="#a"/><linearGradient id="f" x1="86.48" x2="43.1" y1="133.11" y2="40.72" gradientUnits="userSpaceOnUse" href="#b"/><linearGradient id="d" x1="100.43" x2="43.38" y1="144.47" y2="279.75" gradientUnits="userSpaceOnUse" href="#c"/></defs><path fill="#fff" stroke="#000" stroke-opacity=".99" stroke-width=".26" d="M30.66 49.9c.77 11 22.93 12.42 26.12 14.2 4.72 2.63 2.2-23.02 1.88-27.66-.31-4.65-28.7 3.58-28 13.46z"/><path fill="#121212" d="M35.9 57.6c-4.25-2.44-7.95-6.44-11.87-9.63 4.3-.44 9.13-.97 16.22 4.08-2.18.86-3.64 1.68-4.35 5.56"/><path d="M26.86 46.29C26.99 46.29 51.8 57 51.8 57l8.55-21.24-28.2-10.87z"/><path fill="#cfcfcf" d="m23.65 42.74 5.04-12.35 27.36 12.45-5.03 12.36z"/><text xml:space="preserve" x="171.75" y="94.89" stroke-width=".46" direction="rtl" font-size="5.56" letter-spacing="-.93" style="text-align:justify" transform="matrix(.974 .443 -.387 .851 -76.38 -109.07)"><tspan x="170.83" y="94.89">⣿⣿⣿⣿⣿⣿⣿⣿</tspan></text><text xml:space="preserve" x="171.73" y="101.07" stroke-width=".46" direction="rtl" font-size="5.56" letter-spacing="-.93" style="text-align:justify" transform="matrix(.974 .443 -.387 .851 -76.38 -109.07)"><tspan x="170.81" y="101.07">⣿⣿⣿⣿⣿⣿⣿⣿</tspan></text><path fill="url(#d)" d="M84.09 157.74c7.86-1.57 18.8-1.21 20.24-.65 4.27 1.69 4.85 2.65 5 7.31 3.99 3.7 6.16 5.5 3.78 11-.16 2.6-.61 5.17-.4 7.8l-17.41 4.73c-7.41-19.49-3.99-15.64-17.08-18.75Z" transform="translate(-76.38 -109.07)"/><path fill="#f60" fill-opacity=".99" stroke="#000" stroke-width=".27" d="M.5.21c2.38 1.1 2.37-1.35 15.6 15.86 3.62-1.98 14.25-.94 16.74 2.04 9.47-5.06 12.25-6.93 17.23-9.86.25 6.04-1.48 14.23-4.52 18l-7.96 5.76c.56 8.19 3.5 8.57 5.23 12.45a20 20 0 0 1-6.76-1.77c1.26 4.8-.54 1.84-1 5.87-1.96.7-5.67-2.28-7.85-2.68l-12.59 1.27c-5.16 1.2-10.2 1-14.55-1.87 2.37.38 4.84 2.15 7.44-5.3-1.26.65-3.04.66-4.63-1.36.28-1.5-1.34-3.07-2.06-4.61 1.8.63 3.88 2.32 5.73-1.93 1.76-5.14-2.41-6.06-3.28-12.24C2.4 13.6.81 5.81.5.21z"/><path fill="url(#e)" d="M112.48 131.36c3.97-5.29 10.02-12.14 13.93-13.91.18 5.22-1.54 14.4-4.57 17.77-1.23 1.13-6.75 4.91-6.75 4.91-.67-4.6-.98-8.1-2.6-8.77" transform="translate(-76.38 -109.07)"/><path fill="url(#f)" d="M85.56 140.56c-.44-3.98 3.9-11.9 3.76-12.1-3.86-6.06-4.63-17.21-12.3-18.97.07 1.18-.09 2.83 1.96 14.17.94 6.9.42 7.3 6.58 16.9" transform="translate(-76.38 -109.07)"/><path fill="#fff" d="M14.89 48.07a15 15 0 0 0 8.6 3.58c1.52-.17 2.97-.64 3.94-3.14-.93-.63-.75.39-3.04-2.24.09-1.17-.4-1.83.27-3.51l.86.38c2.18-1.47 2.61-1.6 3.92-2.4 2.83-1.93 2.59-2.59 3.06-5.08 1.18-2.79 2.54-1.46 1.73-5.59a20 20 0 0 0-2.41-5.7c-1.45 1.83-2.9 3.6-7.03 5.63-2.7.37-6.23.35-7.9 1.16l.99 6.85.56 6.38c-.39 2.02-1.28 3.54-3.55 3.68"/><path fill="#ededed" stroke="#000" stroke-opacity=".99" stroke-width=".26" d="m48.23 34.72.98.3-.17 1.06c.91.78 2.58 1.9 3.33 1.22.9-.8.76.78 1.3.05L56.1 34l1.62.75s.08-1.54.04-1.67c-.09-.26-5.46-3.57-6.5-3.35-.9.18-2.27.71-2.4 1.08-.4 1.17-.65 2.38-.63 3.9z"/></svg>