<svg xmlns="http://www.w3.org/2000/svg" xml:space="preserve" width="189.8" height="298.1" viewBox="0 0 50.2 78.9"><defs><linearGradient id="c"><stop offset="0"/><stop offset="1" stop-color="#999"/></linearGradient><linearGradient id="b"><stop offset="0" stop-color="#fff"/><stop offset="1" stop-color="#fff" stop-opacity="0"/></linearGradient><linearGradient id="a"><stop offset="0" stop-color="#fff"/><stop offset="1" stop-color="#fff" stop-opacity="0"/></linearGradient><linearGradient id="e" x1="115.1" x2="171.5" y1="135.5" y2="48.2" gradientUnits="userSpaceOnUse" href="#a"/><linearGradient id="f" x1="86.5" x2="43.1" y1="133.1" y2="40.7" gradientUnits="userSpaceOnUse" href="#b"/><linearGradient id="d" x1="100.4" x2="43.4" y1="144.5" y2="279.7" gradientUnits="userSpaceOnUse" href="#c"/></defs><path fill="#121212" d="M34.6 58c-4.2-2.6-3.2-6.7-7-10 8.3-.2 13 6.7 13 6.7s-3.2 0-6 3.4"/><path fill="url(#d)" d="M84 157.7a81 81 0 0 1 20.3-.9c2.5.3 3.4 1.8 4 2.8.8 1 1.5 1.8 1.6 4.2 3.5 3.8 5.6 6.1 3.2 11.6-.1 2.6-.6 5.2-.4 7.8l-17.4 4.7c-7.4-19.5-4-15.6-17-18.7Z" transform="translate(-76.4 -109)"/><path fill="#f60" stroke="#000" stroke-width=".3" d="M.5.2C2.9 1.3 2.9-1 16.1 16.1c3.6-2 14.3-1 16.7 2 9.5-5 12.3-7 17.3-9.8.2 6-1.5 14.2-4.5 18l-8 5.7c.6 8.2 3.5 8.6 5.2 12.5-2.1-.3-4.3-.6-6.7-1.8 1.2 4.8-.6 1.8-1 5.9-2 .7-5.7-2.3-7.9-2.7l-12.6 1.3c-5.1 1.2-10.2 1-14.5-2 2.3.5 4.8 2.2 7.4-5.2-1.2.6-3 .6-4.6-1.4.3-1.5-1.4-3-2-4.6 1.7.6 3.8 2.3 5.7-2 1.7-5-2.5-6-3.3-12.2C2.4 13.6.8 5.8.5.2z"/><path fill="url(#e)" d="M112.5 131.4c4-5.3 10-12.2 14-14 0 5.3-1.6 14.4-4.7 17.8-1.2 1.1-6.7 5-6.7 5-.7-4.7-1-8.2-2.6-8.8" transform="translate(-76.4 -109)"/><path fill="url(#f)" d="M85.6 140.6c-.5-4 3.9-12 3.7-12.1-3.8-6.1-4.6-17.3-12.3-19 0 1.2 0 2.8 2 14.2 1 6.9.4 7.3 6.6 16.9" transform="translate(-76.4 -109)"/><path fill="#fff" d="M14.9 48c2 1.7 4.3 3.2 8.6 3.7 1.5-.2 3-.7 4-3.2-1-.6-.8.4-3.1-2.2 0-1.2-.4-1.9.3-3.5l.8.3 4-2.4c2.8-1.9 2.5-2.5 3-5 1.2-2.8 2.5-1.5 1.7-5.6q-.7-3-2.4-5.7a18 18 0 0 1-7 5.6c-2.7.4-6.2.4-7.9 1.2l1 6.8.5 6.4c-.3 2-1.2 3.5-3.5 3.7"/><text xml:space="preserve" x="41.6" y="174.4" fill="#fff" stroke-width=".4" direction="rtl" font-family="sans-serif" font-size="5.7" font-weight="400" style="-inkscape-font-specification:&quot;sans-serif, Normal&quot;;font-variant-ligatures:normal;font-variant-caps:normal;font-variant-numeric:normal;font-variant-east-asian:normal;text-align:justify" transform="matrix(.947 -.158 .395 .99 -76.4 -109)"><tspan x="41.6" y="174.4">Linux</tspan></text><text xml:space="preserve" x="57.5" y="187.2" fill="#fff" stroke-width=".3" direction="rtl" font-family="sans-serif" font-size="5.2" font-weight="400" style="-inkscape-font-specification:&quot;sans-serif, Normal&quot;;font-variant-ligatures:normal;font-variant-caps:normal;font-variant-numeric:normal;font-variant-east-asian:normal;text-align:justify" transform="matrix(.952 -.151 .3 1.003 -76.4 -109)"><tspan x="57.5" y="187.2">issue</tspan></text><text xml:space="preserve" x="-14.9" y="301.7" fill="#fff" stroke-width=".2" direction="rtl" font-family="sans-serif" font-size="5" font-weight="400" style="-inkscape-font-specification:&quot;sans-serif, Normal&quot;;font-variant-ligatures:normal;font-variant-caps:normal;font-variant-numeric:normal;font-variant-east-asian:normal;text-align:justify;white-space:pre;inline-size:11.7746" transform="matrix(1.288 -.253 .269 .753 -29.4 -168.8)"><tspan x="-14.9" y="301.7"><tspan font-style="italic" style="-inkscape-font-specification:&quot;sans-serif Italic&quot;">s̶k̶i̶l̶l̶</tspan><tspan dx="-6" font-style="italic" style="-inkscape-font-specification:&quot;sans-serif Italic&quot;"> </tspan></tspan></text></svg>