<svg xmlns="http://www.w3.org/2000/svg" xmlns:xlink="http://www.w3.org/1999/xlink" xml:space="preserve" width="228.117" height="298.087" viewBox="0 0 60.356 78.869"><defs><linearGradient id="c"><stop offset="0"/><stop offset="1" stop-color="#999"/></linearGradient><linearGradient id="b"><stop offset="0" stop-color="#fff"/><stop offset="1" stop-color="#fff" stop-opacity="0"/></linearGradient><linearGradient id="a"><stop offset="0" stop-color="#fff"/><stop offset="1" stop-color="#fff" stop-opacity="0"/></linearGradient><linearGradient xlink:href="#a" id="e" x1="115.142" x2="171.521" y1="135.489" y2="48.2" gradientUnits="userSpaceOnUse"/><linearGradient xlink:href="#b" id="f" x1="86.484" x2="43.104" y1="133.107" y2="40.722" gradientUnits="userSpaceOnUse"/><linearGradient xlink:href="#c" id="d" x1="100.431" x2="43.383" y1="144.47" y2="279.749" gradientUnits="userSpaceOnUse"/></defs><path fill="#fff" stroke="#000" stroke-opacity=".985" stroke-width=".265" d="M30.659 49.904c.772 11 22.928 12.411 26.121 14.193 4.715 2.631 2.198-23.02 1.883-27.661s-28.698 3.583-28.004 13.468z"/><path fill="#121212" d="M35.9 57.607c-4.254-2.446-7.947-6.451-11.87-9.64 4.304-.435 9.131-.966 16.222 4.078-2.185.861-3.646 1.682-4.352 5.562"/><path fill-opacity=".999" d="M26.857 46.29c.128 0 24.95 10.711 24.95 10.711l8.549-21.242-28.195-10.866z"/><path fill="#cfcfcf" d="m21.797 42.884 5.704-13.243L56.07 41.945l-5.704 13.243z"/><text xml:space="preserve" x="-88.45" y="171.163" fill-opacity=".999" stroke-opacity=".985" stroke-width=".746" font-size="8.933" transform="matrix(.40238 -.92884 .898 .41231 -76.383 -109.066)"><tspan x="-88.45" y="171.163" dx="0" dy="4" style="text-align:center" text-anchor="middle">⠿⠿</tspan><tspan x="-88.45" y="182.554" style="text-align:center" text-anchor="middle">⠿⠿</tspan></text><path fill="url(#d)" d="M84.09 157.738c7.858-1.572 18.808-1.21 20.236-.645 4.27 1.685 4.858 2.644 5.007 7.311 3.986 3.7 6.156 5.495 3.779 10.995-.162 2.598-.613 5.173-.41 7.801l-17.406 4.734c-7.406-19.49-3.982-15.645-17.078-18.753Z" transform="translate(-76.383 -109.066)"/><path fill="#f60" fill-opacity=".992" stroke="#000" stroke-width=".265" d="M.503.212c2.38 1.097 2.369-1.356 15.604 15.862 3.609-1.987 14.246-.946 16.736 2.034 9.47-5.057 12.244-6.932 17.226-9.856.25 6.037-1.48 14.223-4.519 17.999l-7.956 5.755c.56 8.19 3.505 8.578 5.23 12.458-2.17-.274-4.354-.6-6.762-1.779 1.263 4.808-.545 1.849-1 5.877-1.96.693-5.667-2.281-7.848-2.687l-12.59 1.277c-5.166 1.205-10.208.99-14.551-1.868 2.372.377 4.835 2.146 7.44-5.303-1.26.646-3.042.662-4.635-1.364.283-1.494-1.343-3.072-2.06-4.61 1.808.631 3.878 2.325 5.732-1.93C8.313 26.94 4.136 26.02 3.274 19.84 2.404 13.601.81 5.811.503.212z"/><path fill="url(#e)" d="M112.484 131.356c3.961-5.283 10.02-12.135 13.928-13.91.176 5.221-1.543 14.399-4.575 17.773-1.225 1.13-6.75 4.912-6.75 4.912-.67-4.592-.977-8.097-2.603-8.775" transform="translate(-76.383 -109.066)"/><path fill="url(#f)" d="M85.565 140.56c-.448-3.981 3.89-11.904 3.76-12.108-3.861-6.052-4.636-17.204-12.309-18.966.07 1.184-.084 2.83 1.964 14.179.937 6.897.424 7.295 6.585 16.894" transform="translate(-76.383 -109.066)"/><path fill="#fff" d="M14.89 48.073c2.025 1.623 4.28 3.128 8.6 3.58 1.52-.176 2.97-.643 3.94-3.142-.932-.627-.752.387-3.039-2.24.088-1.171-.41-1.83.264-3.513l.87.384c2.18-1.476 2.608-1.605 3.913-2.407 2.837-1.925 2.59-2.585 3.064-5.073 1.18-2.788 2.541-1.462 1.725-5.587-.437-1.95-1.32-3.892-2.407-5.704-1.447 1.826-2.898 3.597-7.03 5.626-2.705.374-6.227.353-7.892 1.16l.979 6.848.566 6.386c-.39 2.022-1.28 3.544-3.553 3.682"/><path fill="#ededed" stroke="#000" stroke-opacity=".985" stroke-width=".265" d="m48.228 34.72.979.295-.168 1.069c.911.773 2.58 1.888 3.335 1.216.899-.798.759.78 1.294.045l2.433-3.334 1.615.753s.08-1.548.04-1.67c-.084-.265-5.46-3.57-6.502-3.357-.892.18-2.263.716-2.388 1.081-.403 1.176-.658 2.384-.638 3.901z"/></svg>